<?xml version="1.0" encoding="UTF-8" standalone="no"?>
<svg
   width="300"
   height="300"
   viewBox="0 0 300 300"
   version="1.1"
   id="svg20"
   sodipodi:docname="l_chart1 - 副本.svg"
   inkscape:version="1.3.2 (091e20e, 2023-11-25, custom)"
   inkscape:export-filename="l_chart1.png"
   inkscape:export-xdpi="72"
   inkscape:export-ydpi="72"
   xmlns:inkscape="http://www.inkscape.org/namespaces/inkscape"
   xmlns:sodipodi="http://sodipodi.sourceforge.net/DTD/sodipodi-0.dtd"
   xmlns="http://www.w3.org/2000/svg"
   xmlns:svg="http://www.w3.org/2000/svg">
  <sodipodi:namedview
     id="namedview20"
     pagecolor="#ffffff"
     bordercolor="#000000"
     borderopacity="0.25"
     inkscape:showpageshadow="2"
     inkscape:pageopacity="0.0"
     inkscape:pagecheckerboard="0"
     inkscape:deskcolor="#d1d1d1"
     inkscape:zoom="1.9433333"
     inkscape:cx="200.42882"
     inkscape:cy="150"
     inkscape:window-width="1440"
     inkscape:window-height="821"
     inkscape:window-x="-7"
     inkscape:window-y="-7"
     inkscape:window-maximized="1"
     inkscape:current-layer="svg20" />
  <!-- Define shared color palette -->
  <defs
     id="defs1">
    <style
       id="style1">
      .background { fill: none; }
      .axis { stroke: #666666; stroke-width: 1.5; }
      .axis-label { font-family: Arial, sans-serif; font-size: 10px; fill: #666666; }
      .grid { stroke: #EEEEEE; stroke-width: 1; stroke-dasharray: 2,2; }
      .chart-line { stroke: #001F3F; stroke-width: 3; fill: none; stroke-linecap: round; }
      .highlight { stroke: #39CCCC; stroke-width: 4; fill: none; stroke-linecap: round; }
      .data-point { fill: #39CCCC; r: 4; }
      .network { fill: #39CCCC; stroke: #001F3F; stroke-width: 1.5; }
    </style>
  </defs>
  <!-- Background (optional, remove for transparent) -->
  <rect
     class="background"
     width="400"
     height="300"
     id="rect1"
     x="0"
     y="0" />
  <!-- Stock Line Chart (Left) -->
  <g
     transform="matrix(0.85698918,0,0,0.89554966,15.725642,55.42903)"
     id="g19">
    <!-- Y-Axis (vertical) -->
    <line
       class="axis"
       x1="0"
       y1="0"
       x2="0"
       y2="260"
       id="line1" />
    <!-- Y-Axis ticks -->
    <line
       x1="-2"
       y1="240"
       x2="0"
       y2="240"
       class="axis"
       id="line2" />
    <line
       x1="-2"
       y1="150"
       x2="0"
       y2="150"
       class="axis"
       id="line3" />
    <line
       x1="-2"
       y1="60"
       x2="0"
       y2="60"
       class="axis"
       id="line4" />
    <!-- X-Axis (horizontal) -->
    <line
       class="axis"
       x1="0"
       y1="260"
       x2="320"
       y2="260"
       id="line5" />
    <!-- X-Axis ticks -->
    <line
       x1="80"
       y1="258"
       x2="80"
       y2="260"
       class="axis"
       id="line6" />
    <line
       x1="160"
       y1="258"
       x2="160"
       y2="260"
       class="axis"
       id="line7" />
    <line
       x1="240"
       y1="258"
       x2="240"
       y2="260"
       class="axis"
       id="line8" />
    <!-- Chart grid (subtle) -->
    <line
       class="grid"
       x1="0"
       y1="240"
       x2="320"
       y2="240"
       id="line9" />
    <line
       class="grid"
       x1="0"
       y1="150"
       x2="320"
       y2="150"
       id="line10" />
    <line
       class="grid"
       x1="0"
       y1="60"
       x2="320"
       y2="60"
       id="line11" />
    <line
       class="grid"
       x1="80"
       y1="0"
       x2="80"
       y2="260"
       id="line12" />
    <line
       class="grid"
       x1="160"
       y1="0"
       x2="160"
       y2="260"
       id="line13" />
    <line
       class="grid"
       x1="240"
       y1="0"
       x2="240"
       y2="260"
       id="line14" />
    <!-- Stock line chart (rising trend with volatility) -->
    <path
       d="m 80,240 40,-60 40,20 40,-60 40,30 40,-50 40,70"
       class="chart-line"
       id="path14" />
    <!-- Highlight recent trend (last 3 points) -->
    <path
       d="m 240,170 40,-50 40,70"
       class="highlight"
       id="path15" />
    <!-- Data points (key milestones) -->
    <circle
       class="data-point"
       cx="80"
       cy="240"
       id="circle15"
       r="0" />
    <circle
       class="data-point"
       cx="160"
       cy="200"
       id="circle16"
       r="0" />
    <circle
       class="data-point"
       cx="200"
       cy="140"
       id="circle17"
       r="0" />
    <circle
       class="data-point"
       cx="280"
       cy="120"
       id="circle18"
       r="0" />
    <circle
       class="data-point"
       cx="320"
       cy="190"
       id="circle19"
       r="0" />
  </g>
  <!-- Network Node Graphic (Top-Right) -->
  <g
     transform="matrix(1.1261442,0,0,1.4185055,21.105933,-4.9440876)"
     id="g20">
    <path
       d="m 116.7,109 h -6 V 61.5 h 11.7 V 45 h -8.9 L 64.3,28.3 15.1,45 H 6.2 V 61.5 H 17.9 V 109 h -6 l -6.5,11.3 58.9,0.1 58.9,-0.1 z m -71.3,0 H 28.8 V 61.5 h 16.6 z m 26.9,0 h -8 -8 V 61.5 h 8 8 z m 27.5,0 H 83.2 V 61.5 h 16.6 z"
       class="network"
       id="path19" />
  </g>
</svg>
